<svg width="131" height="29" viewBox="0 0 131 29" fill="none" xmlns="http://www.w3.org/2000/svg">
<path d="M12.4304 6.42939C11.5594 6.42939 10.7863 6.60064 10.1111 6.94315C9.44566 7.27587 8.88296 7.76028 8.42302 8.39637C7.97286 9.02267 7.63036 9.79087 7.39549 10.701C7.16063 11.6013 7.0432 12.6141 7.0432 13.7395C7.0432 14.8845 7.14595 15.9022 7.35145 16.7927C7.56675 17.6833 7.88968 18.4368 8.32027 19.0533C8.76064 19.66 9.31844 20.1249 9.99367 20.4478C10.6787 20.761 11.4909 20.9175 12.4304 20.9175C13.3013 20.9175 14.1723 20.8197 15.0432 20.624C15.924 20.4282 16.8781 20.1493 17.9056 19.7873V23.6038C17.4359 23.7995 16.9711 23.9659 16.5111 24.1029C16.0512 24.2399 15.5815 24.3524 15.102 24.4405C14.6224 24.5286 14.1282 24.5922 13.6194 24.6313C13.1203 24.6802 12.5821 24.7047 12.0047 24.7047C10.3509 24.7047 8.91721 24.4405 7.70375 23.912C6.49029 23.3836 5.48722 22.6399 4.69456 21.6808C3.90189 20.7218 3.31474 19.5671 2.93308 18.2166C2.55143 16.8661 2.3606 15.364 2.3606 13.7102C2.3606 12.0857 2.58079 10.5982 3.02116 9.24775C3.46153 7.8875 4.1074 6.71807 4.95878 5.73947C5.81016 4.76088 6.86216 4.00246 8.11476 3.46423C9.36737 2.91622 10.8059 2.64221 12.4304 2.64221C13.4971 2.64221 14.5637 2.77921 15.6304 3.05322C16.7069 3.31744 17.7344 3.68442 18.713 4.15414L17.2451 7.85325C16.4426 7.47159 15.6353 7.13887 14.8231 6.85508C14.0108 6.57128 13.2133 6.42939 12.4304 6.42939ZM27.036 12.4771H28.269C29.5314 12.4771 30.4366 12.2276 30.9846 11.7285C31.5326 11.2196 31.8066 10.4759 31.8066 9.49729C31.8066 8.47955 31.5131 7.75539 30.9259 7.3248C30.3387 6.89422 29.4286 6.67893 28.1956 6.67893H27.036V12.4771ZM27.036 16.1762V24.4111H22.4855V2.95047H28.3571C31.1069 2.95047 33.1375 3.4838 34.4488 4.55048C35.7602 5.60736 36.4158 7.21716 36.4158 9.37986C36.4158 10.1138 36.318 10.7793 36.1222 11.3762C35.9265 11.9731 35.6623 12.5065 35.3296 12.9762C35.0066 13.4362 34.6299 13.8423 34.1993 14.1946C33.7785 14.5371 33.3332 14.8258 32.8635 15.0606C33.9498 16.8025 34.9235 18.3585 35.7846 19.7285C36.1565 20.3157 36.5137 20.8882 36.8562 21.446C37.2085 22.0038 37.5216 22.5029 37.7957 22.9432C38.0697 23.3836 38.2947 23.7359 38.4709 24.0001L38.7204 24.4111H33.6709L29.0176 16.1762H27.036ZM53.7811 24.4111H41.4214V2.95047H53.7811V6.67893H45.9718V11.3909H53.2379V15.1193H45.9718V20.6533H53.7811V24.4111ZM74.8748 13.4753C74.8748 15.2857 74.6252 16.8759 74.1261 18.246C73.6368 19.6062 72.9224 20.7463 71.983 21.6662C71.0533 22.5763 69.9084 23.2613 68.5481 23.7212C67.1976 24.1812 65.6564 24.4111 63.9242 24.4111H58.2728V2.95047H64.5554C66.131 2.95047 67.5499 3.17555 68.8123 3.6257C70.0845 4.07586 71.1708 4.7462 72.0711 5.63672C72.9714 6.51746 73.6613 7.61349 74.1408 8.92481C74.6301 10.2361 74.8748 11.753 74.8748 13.4753ZM70.2656 13.5927C70.2656 12.3988 70.1432 11.3713 69.8986 10.5101C69.6637 9.63919 69.3163 8.91992 68.8564 8.35233C68.4062 7.78474 67.8484 7.36395 67.183 7.08994C66.5273 6.81593 65.7738 6.67893 64.9224 6.67893H62.8233V20.6533H64.4967C66.4148 20.6533 67.8533 20.0662 68.8123 18.8918C69.7811 17.7175 70.2656 15.9511 70.2656 13.5927Z" fill="black"/>
<path d="M84.9322 23.7736C84.1107 23.7736 83.1441 23.6673 82.0326 23.4546C80.9307 23.2517 79.8433 22.894 78.7705 22.3818L79.6114 20.2795C80.5296 20.6951 81.4333 20.9948 82.3225 21.1784C83.2214 21.3524 84.014 21.4394 84.7003 21.4394C85.9761 21.4394 86.9813 21.1156 87.7159 20.468C88.4505 19.8107 88.8178 19.0182 88.8178 18.0903C88.8178 17.288 88.581 16.6163 88.1073 16.075C87.6337 15.5241 87.0248 15.036 86.2806 14.6107C85.546 14.1757 84.7631 13.7505 83.9319 13.3348C83.1006 12.9096 82.3129 12.436 81.5686 11.914C80.8244 11.3824 80.2155 10.7493 79.7419 10.0148C79.2779 9.27051 79.0459 8.35712 79.0459 7.27458C79.0459 6.22104 79.3021 5.29799 79.8143 4.50542C80.3363 3.70318 81.0467 3.07975 81.9456 2.63514C82.8541 2.18086 83.8884 1.95373 85.0482 1.95373C85.8988 1.95373 86.7445 2.02138 87.5854 2.1567C88.4263 2.28235 89.3687 2.51432 90.4126 2.85262L89.5572 4.94036C88.7259 4.68906 87.9527 4.51991 87.2375 4.43293C86.5319 4.33627 85.8939 4.28794 85.3237 4.28794C84.2991 4.28794 83.5066 4.57308 82.946 5.14334C82.3854 5.7136 82.1051 6.39019 82.1051 7.17309C82.1051 7.90767 82.3419 8.54076 82.8155 9.07237C83.2891 9.5943 83.898 10.0727 84.6423 10.5077C85.3865 10.933 86.1791 11.3679 87.02 11.8125C87.8609 12.2475 88.6534 12.7453 89.3977 13.3059C90.1419 13.8568 90.7509 14.5189 91.2245 15.2921C91.7077 16.0654 91.9494 17.0029 91.9494 18.1048C91.9494 19.139 91.6691 20.0862 91.1085 20.9464C90.5576 21.797 89.7553 22.4832 88.7018 23.0052C87.6579 23.5175 86.4014 23.7736 84.9322 23.7736ZM95.9088 23.4111V2.33068H108.087V4.6649H99.0404V21.0769H108.522V23.4111H95.9088ZM100.142 13.4943C100.278 13.1174 100.452 12.7549 100.664 12.407C100.886 12.0493 101.167 11.7642 101.505 11.5516C101.843 11.3293 102.259 11.2181 102.752 11.2181H107.101V13.4943H100.142ZM111.163 23.4111L118.76 2.33068H121.819L129.416 23.4111H126.096L120.384 6.78164L120.181 5.86825L119.964 6.79614L116.919 15.6111L116.6 16.2055L116.962 16.1475H120.413C120.906 16.1475 121.317 16.2635 121.645 16.4955C121.984 16.7178 122.259 17.0126 122.472 17.3799C122.684 17.7375 122.858 18.1048 122.994 18.4817H115.977L114.28 23.4111H111.163Z" fill="url(#paint0_linear_97_915)"/>
<defs>
<linearGradient id="paint0_linear_97_915" x1="99.8985" y1="23.7349" x2="99.7168" y2="3.48857" gradientUnits="userSpaceOnUse">
<stop offset="0.0430004" stop-color="#0163DF"/>
<stop offset="0.689251" stop-color="#00C3FF"/>
</linearGradient>
</defs>
</svg>
