<svg width="55" height="59" viewBox="0 0 55 59" fill="none" xmlns="http://www.w3.org/2000/svg">
<path fill-rule="evenodd" clip-rule="evenodd" d="M15.7464 14.0948V11.3649L26.3824 10V12.7658L15.7464 14.0948ZM13.4099 11.6339L10 12.1054V38.7762V38.777L10.0007 38.7766L27.3529 48.2314V48.236L44.6444 38.7808L44.5402 38.7283L44.6448 38.777V12.1054L41.2349 11.6339V37.1032L27.3637 44.7144L13.4099 37.0831V11.6339ZM18.783 14.8495L15.8111 15.1728V35.886V35.8865L15.8115 35.8863L23.5031 40.0742V40.0704L26.4748 41.5995V33.1856H23.5029V36.8006L18.783 34.3535L18.783 14.8495ZM38.9177 27.792H38.917V35.8859L38.9173 35.886L38.917 35.8862V35.9081L38.8965 35.8973L31.2778 40.0343V36.8007L35.9452 34.3536V27.792H28.3078V25.0621H28.3236V13.7304L31.2737 14.062V25.0621H38.9177V27.792ZM23.4102 14.0976L26.382 13.7354V20.0334H23.4102V14.0976ZM38.9171 15.0412L35.9453 14.67V20.034H38.9171V15.0412ZM38.9173 11.3649V14.0948L28.2813 12.7658V10L38.9173 11.3649ZM31.2778 33.1611H28.3059V41.575L31.2778 40.0457V33.1611Z" fill="url(#paint0_linear_3016_2126)"/>
<defs>
<linearGradient id="paint0_linear_3016_2126" x1="27.3224" y1="9.9998" x2="27.3225" y2="48.2358" gradientUnits="userSpaceOnUse">
<stop offset="0.177527" stop-color="#00C3FF"/>
<stop offset="1" stop-color="#0163DF"/>
</linearGradient>
</defs>
</svg>
